HIERARCHY
ROOT joint_Root
{
	OFFSET 0.0 0.0 0.0
	CHANNELS 6 Xposition Yposition Zposition Zrotation Xrotation Yrotation 
	JOINT Hips
	{
		OFFSET 4.5925 91.4895 -427.239
		CHANNELS 6 Xposition Yposition Zposition Zrotation Xrotation Yrotation 
		JOINT Spine
		{
			OFFSET 15.7357 0.0 0.0
			CHANNELS 6 Xposition Yposition Zposition Zrotation Xrotation Yrotation 
			JOINT Chest
			{
				OFFSET 8.98455 -0.406207 0.0
				CHANNELS 6 Xposition Yposition Zposition Zrotation Xrotation Yrotation 
				JOINT Neck
				{
					OFFSET 16.3773 0.0 0.0
					CHANNELS 6 Xposition Yposition Zposition Zrotation Xrotation Yrotation 
					JOINT Head
					{
						OFFSET 6.45672 0.0 0.0
						CHANNELS 6 Xposition Yposition Zposition Zrotation Xrotation Yrotation 
						End Site
						{
							OFFSET 0.0 0.0 0.0
						}
					}
				}
				JOINT Shoulder_L
				{
					OFFSET 12.9942 -0.242716 4.98039
					CHANNELS 6 Xposition Yposition Zposition Zrotation Xrotation Yrotation 
					JOINT UpperArm_L
					{
						OFFSET 5.34809 0.0 0.0
						CHANNELS 6 Xposition Yposition Zposition Zrotation Xrotation Yrotation 
						JOINT LowerArm_L
						{
							OFFSET 24.3286 1.87007e-05 0.0
							CHANNELS 6 Xposition Yposition Zposition Zrotation Xrotation Yrotation 
							JOINT Hand_L
							{
								OFFSET 22.2916 0.0 0.0
								CHANNELS 6 Xposition Yposition Zposition Zrotation Xrotation Yrotation 
								End Site
								{
									OFFSET 0.0 0.0 0.0
								}
							}
						}
					}
				}
				JOINT Shoulder_R
				{
					OFFSET 12.9945 -0.242716 -4.98039
					CHANNELS 6 Xposition Yposition Zposition Zrotation Xrotation Yrotation 
					JOINT UpperArm_R
					{
						OFFSET -5.34813 0.0 0.0
						CHANNELS 6 Xposition Yposition Zposition Zrotation Xrotation Yrotation 
						JOINT LowerArm_R
						{
							OFFSET -24.3289 0.000322201 0.0
							CHANNELS 6 Xposition Yposition Zposition Zrotation Xrotation Yrotation 
							JOINT Hand_R
							{
								OFFSET -22.2915 -0.000108084 0.0
								CHANNELS 6 Xposition Yposition Zposition Zrotation Xrotation Yrotation 
								End Site
								{
									OFFSET 0.0 0.0 0.0
								}
							}
						}
					}
				}
			}
		}
		JOINT UpperLeg_L
		{
			OFFSET -2.19248 -6.46944 0.0
			CHANNELS 6 Xposition Yposition Zposition Zrotation Xrotation Yrotation 
			JOINT LowerLeg_L
			{
				OFFSET 39.0811 0.0 -1.23785e-05
				CHANNELS 6 Xposition Yposition Zposition Zrotation Xrotation Yrotation 
				JOINT Foot_L
				{
					OFFSET 40.9854 0.0 -1.26872e-05
					CHANNELS 6 Xposition Yposition Zposition Zrotation Xrotation Yrotation 
					JOINT Toes_L
					{
						OFFSET 11.7543 0.0 0.0
						CHANNELS 6 Xposition Yposition Zposition Zrotation Xrotation Yrotation 
						End Site
						{
							OFFSET 0.0 0.0 0.0
						}
					}
				}
			}
		}
		JOINT UpperLeg_R
		{
			OFFSET -2.19251 6.46944 0.0
			CHANNELS 6 Xposition Yposition Zposition Zrotation Xrotation Yrotation 
			JOINT LowerLeg_R
			{
				OFFSET -39.0811 -0.00228153 -0.0401928
				CHANNELS 6 Xposition Yposition Zposition Zrotation Xrotation Yrotation 
				JOINT Foot_R
				{
					OFFSET -40.9854 0.0 0.0
					CHANNELS 6 Xposition Yposition Zposition Zrotation Xrotation Yrotation 
					JOINT Toes_R
					{
						OFFSET -11.7543 0.0 0.0
						CHANNELS 6 Xposition Yposition Zposition Zrotation Xrotation Yrotation 
						End Site
						{
							OFFSET 0.0 0.0 0.0
						}
					}
				}
			}
		}
	}
}
MOTION
Frames:	6
Frame Time:	0.0333333
0.000000 0.000000 0.000000 0.000000 0.000000 -0.000000 -0.967424 90.431700 4.425560 89.052000 0.221254 3.632270 15.735700 0.000005 -0.000001 78.217100 86.349200 -78.188500 8.984550 -0.406207 -0.000000 -0.617831 -1.492790 0.049100 16.377300 -0.000001 -0.000001 4.411320 -2.496300 2.501150 6.456720 -0.000001 -0.000000 -2.010690 -1.471190 3.691360 12.994200 -0.242716 4.980390 -83.549500 -12.184800 -61.823700 5.348090 -0.000007 -0.000001 -70.672500 -68.713400 -114.761000 24.328600 0.000019 0.000005 6.843760 5.960140 -49.134400 22.291600 -0.000001 0.000005 15.023200 5.384540 -2.440080 12.994500 -0.242716 -4.980390 94.763700 -11.189200 -66.759200 -5.348130 -0.000001 -0.000004 -46.082800 -67.495100 -85.415300 -24.328900 0.000322 -0.000009 -4.503320 -3.786070 -50.016700 -22.291500 -0.000108 -0.000004 20.315400 5.538090 -8.146630 -2.192480 -6.469440 -0.000000 -174.975000 -9.684720 -4.094940 39.081100 -0.000007 -0.000012 -0.238465 0.399070 30.860900 40.985400 -0.000006 -0.000013 -0.209375 5.697490 -73.099200 11.754300 -0.000000 0.000003 -0.000487 -0.003895 -16.720100 -2.192510 6.469440 -0.000001 176.614000 18.742200 175.981000 -39.081100 -0.002282 -0.040193 0.023100 -0.031212 32.394800 -40.985400 0.000008 0.000006 5.739490 8.061120 -72.424000 -11.754300 -0.000006 -0.000006 -1.908290 -2.371850 -17.786600
0.000000 0.000000 0.000000 0.000000 0.000000 -0.000000 -1.076910 91.002700 4.653140 88.866500 0.227294 2.959930 15.735700 0.000005 -0.000001 76.500500 86.882200 -76.496000 8.984550 -0.406207 -0.000000 -1.702730 -1.455680 -0.012758 16.377300 -0.000001 -0.000001 4.771520 -2.298520 2.083110 6.456720 -0.000001 -0.000000 -2.225080 -1.499640 3.548280 12.994200 -0.242716 4.980390 -83.408800 -12.293200 -61.511400 5.348090 -0.000007 -0.000001 -64.631600 -67.166000 -108.193000 24.328600 0.000019 0.000005 6.644760 5.801680 -49.051200 22.291600 -0.000001 0.000005 13.571000 5.381400 -2.341080 12.994500 -0.242716 -4.980390 94.401300 -10.576100 -67.249100 -5.348130 -0.000001 -0.000004 -42.471300 -64.610900 -80.459800 -24.328900 0.000322 -0.000009 -4.235160 -3.553620 -50.062200 -22.291500 -0.000108 -0.000004 19.078500 5.518600 -7.295570 -2.192480 -6.469440 -0.000000 -174.829000 -9.875100 -3.029130 39.081100 -0.000007 -0.000012 -0.192007 0.366329 27.661000 40.985400 -0.000006 -0.000013 -0.109455 5.799960 -71.657800 11.754300 -0.000000 0.000003 -0.166549 -0.231737 -16.563700 -2.192510 6.469440 -0.000001 177.056000 18.882700 177.190000 -39.081100 -0.002282 -0.040193 0.017638 -0.025949 28.915600 -40.985400 0.000008 0.000006 5.630920 8.281150 -71.041300 -11.754300 -0.000006 -0.000006 -1.761180 -2.183410 -17.738600
0.000000 0.000000 0.000000 0.000000 0.000000 -0.000000 -1.155910 91.372600 4.833510 88.839500 0.166103 2.692480 15.735700 0.000005 -0.000001 75.069300 87.210300 -75.105600 8.984550 -0.406207 -0.000000 -2.375680 -1.433910 -0.102469 16.377300 -0.000001 -0.000001 4.645230 -1.986340 1.483600 6.456720 -0.000001 -0.000000 -2.769770 -1.407130 3.064570 12.994200 -0.242716 4.980390 -83.705200 -11.773700 -61.604100 5.348090 -0.000007 -0.000001 -54.911600 -65.204000 -96.720600 24.328600 0.000019 0.000005 6.940850 6.090540 -48.926000 22.291600 -0.000001 0.000005 11.878100 5.374230 -2.116540 12.994500 -0.242716 -4.980390 93.983600 -9.871040 -67.892000 -5.348130 -0.000001 -0.000004 -37.648400 -60.743300 -73.518500 -24.328900 0.000322 -0.000009 -4.071740 -3.432170 -49.927600 -22.291500 -0.000108 -0.000004 18.062400 5.499030 -6.492230 -2.192480 -6.469440 -0.000000 -174.754000 -10.032800 -1.924970 39.081100 -0.000007 -0.000012 -0.174180 0.370453 25.182300 40.985400 -0.000006 -0.000013 -0.403070 5.907760 -70.511700 11.754300 -0.000000 0.000003 -0.100742 -0.141687 -16.625600 -2.192510 6.469440 -0.000001 176.982000 19.774200 178.536000 -39.081100 -0.002282 -0.040193 0.014282 -0.022345 26.153900 -40.985400 0.000008 0.000006 5.699080 9.347410 -70.303000 -11.754300 -0.000006 -0.000006 -1.530150 -1.895660 -17.542500
0.000000 0.000000 0.000000 0.000000 0.000000 -0.000000 -1.187700 91.551000 4.875770 88.842400 -0.054154 2.754890 15.735700 0.000005 -0.000001 74.738300 87.343900 -74.774300 8.984550 -0.406207 -0.000000 -2.641950 -1.394560 -0.104179 16.377300 -0.000001 -0.000001 4.113070 -1.690910 0.954460 6.456720 -0.000001 -0.000000 -3.323860 -1.141540 2.462880 12.994200 -0.242716 4.980390 -84.427300 -10.645600 -62.158900 5.348090 -0.000007 -0.000001 -44.601500 -61.935700 -83.222800 24.328600 0.000019 0.000005 7.073830 6.018280 -49.804800 22.291600 -0.000001 0.000005 10.524000 5.368150 -1.927680 12.994500 -0.242716 -4.980390 93.336400 -8.632180 -68.774700 -5.348130 -0.000001 -0.000004 -32.950800 -55.894000 -66.561300 -24.328900 0.000322 -0.000009 -3.970720 -3.380790 -49.641100 -22.291500 -0.000108 -0.000004 17.430200 5.479390 -5.724850 -2.192480 -6.469440 -0.000000 -174.605000 -10.552000 -1.108470 39.081100 -0.000007 -0.000012 -0.166003 0.375510 23.849100 40.985400 -0.000006 -0.000013 -0.621168 6.322900 -69.863100 11.754300 -0.000000 0.000003 -0.000438 -0.003569 -16.708700 -2.192510 6.469440 -0.000001 176.596000 21.163400 179.690000 -39.081100 -0.002282 -0.040193 0.011956 -0.019064 24.388600 -40.985400 0.000008 0.000006 5.891450 11.063500 -70.158300 -11.754300 -0.000006 -0.000006 -1.252860 -1.552450 -17.249200
0.000000 0.000000 0.000000 0.000000 0.000000 -0.000000 -1.189240 91.611500 4.713240 88.782000 -0.465054 2.855320 15.735700 0.000005 -0.000001 77.193300 87.342100 -77.173900 8.984550 -0.406207 -0.000000 -2.582500 -1.179670 0.012334 16.377300 -0.000001 -0.000001 3.026890 -1.324360 0.509965 6.456720 -0.000001 -0.000000 -3.605110 -1.316390 2.334820 12.994200 -0.242716 4.980390 -85.431100 -9.079630 -63.144400 5.348090 -0.000007 -0.000001 -37.381700 -57.015100 -70.991700 24.328600 0.000019 0.000005 7.381910 5.842690 -51.841800 22.291600 -0.000001 0.000005 9.620750 5.357260 -1.595850 12.994500 -0.242716 -4.980390 92.459100 -6.742200 -69.909800 -5.348130 -0.000001 -0.000004 -29.165300 -50.429300 -59.833700 -24.328900 0.000322 -0.000009 -3.724230 -3.172790 -49.616500 -22.291500 -0.000108 -0.000004 16.893700 5.465260 -5.194660 -2.192480 -6.469440 -0.000000 -174.405000 -11.454500 -0.909321 39.081100 -0.000007 -0.000012 -0.158425 0.362772 23.591400 40.985400 -0.000006 -0.000013 -0.529198 6.858260 -69.638900 11.754300 -0.000000 0.000003 -0.000456 -0.003686 -16.712800 -2.192510 6.469440 -0.000001 176.361000 22.134700 -179.708000 -39.081100 -0.002282 -0.040193 0.010100 -0.015661 23.423800 -40.985400 0.000008 0.000006 6.068820 12.483300 -70.303500 -11.754300 -0.000006 -0.000006 -1.040200 -1.293040 -16.833700
0.000000 0.000000 0.000000 0.000000 0.000000 -0.000000 -1.183980 91.650600 4.406020 88.667800 -0.922046 3.103020 15.735700 0.000005 -0.000001 80.266200 87.151400 -80.175500 8.984550 -0.406207 -0.000000 -2.150110 -0.970826 0.163179 16.377300 -0.000001 -0.000001 1.758310 -1.148310 0.426068 6.456720 -0.000001 -0.000000 -3.899340 -1.376280 2.340160 12.994200 -0.242716 4.980390 -86.558500 -7.218810 -64.428100 5.348090 -0.000007 -0.000001 -33.952800 -50.901600 -60.644800 24.328600 0.000019 0.000005 7.891640 5.735010 -54.209900 22.291600 -0.000001 0.000005 8.757160 5.350510 -1.390780 12.994500 -0.242716 -4.980390 91.457600 -4.336250 -71.408100 -5.348130 -0.000001 -0.000004 -27.282100 -44.404600 -53.486800 -24.328900 0.000322 -0.000009 -3.322290 -2.804210 -49.866500 -22.291500 -0.000108 -0.000004 16.511800 5.454650 -4.805990 -2.192480 -6.469440 -0.000000 -174.189000 -12.089200 -0.804995 39.081100 -0.000007 -0.000012 -0.161898 0.369951 23.635300 40.985400 -0.000006 -0.000013 -0.472845 7.078040 -69.483100 11.754300 -0.000000 0.000003 -0.000469 -0.003777 -16.716000 -2.192510 6.469440 -0.000001 176.300000 22.578400 -179.334000 -39.081100 -0.002282 -0.040193 0.009516 -0.014698 22.871900 -40.985400 0.000008 0.000006 6.258690 13.353400 -70.361500 -11.754300 -0.000006 -0.000006 -0.896130 -1.115470 -16.511100
